<svg xmlns="http://www.w3.org/2000/svg" viewBox="0 0 512 512" role="img" aria-label="URANUS Lịch">
  <rect width="512" height="512" fill="#fff7f0"/>
  <rect x="108" y="124" width="296" height="296" fill="#101010"/>
  <rect x="92" y="108" width="296" height="296" fill="#553bee" stroke="#101010" stroke-width="14"/>
  <rect x="92" y="108" width="296" height="72" fill="#4029c9" stroke="#101010" stroke-width="14"/>
  <rect x="132" y="76" width="36" height="52" fill="#553bee" stroke="#101010" stroke-width="10"/>
  <rect x="312" y="76" width="36" height="52" fill="#553bee" stroke="#101010" stroke-width="10"/>
  <rect x="124" y="204" width="88" height="56" fill="#ebe8ff" stroke="#101010" stroke-width="8"/>
  <rect x="228" y="204" width="88" height="56" fill="#ebe8ff" stroke="#101010" stroke-width="8"/>
  <rect x="332" y="204" width="48" height="56" fill="#2a8179" stroke="#101010" stroke-width="8"/>
  <rect x="124" y="276" width="88" height="56" fill="#ebe8ff" stroke="#101010" stroke-width="8"/>
  <rect x="228" y="276" width="88" height="56" fill="#ebe8ff" stroke="#101010" stroke-width="8"/>
  <rect x="332" y="276" width="48" height="56" fill="#ebe8ff" stroke="#101010" stroke-width="8"/>
  <rect x="124" y="348" width="256" height="40" fill="#ffffff" stroke="#101010" stroke-width="8"/>
  <path
    fill="#553bee"
    d="M168 362h28v18c0 16 12 28 28 28s28-12 28-28v-18h20v18c0 26-20 48-48 48s-48-22-48-48v-18z"
  />
</svg>
